<svg width="21" height="20" viewBox="0 0 21 20" fill="none" xmlns="http://www.w3.org/2000/svg">
<path d="M20.7495 14.3706C20.7495 17.0038 19.1485 18.731 16.5646 18.7472L16.4632 18.7473C15.8682 18.7477 12.8439 18.7499 12.4609 18.75L16.849 9.51367H20.7495V14.3706Z" fill="#1F51FF"/>
<path fill-rule="evenodd" clip-rule="evenodd" d="M12.6324 1.25C12.6324 1.25 5.44515 1.2538 5.43391 1.2538C2.84998 1.26996 1.25 2.99625 1.25 5.6294V14.3711C1.25 17.0176 2.86215 18.7505 5.46855 18.7505C5.46855 18.7505 12.6549 18.7477 12.6671 18.7477C15.251 18.7315 16.8519 17.0043 16.8519 14.3711V5.6294C16.8519 2.98294 15.2388 1.25 12.6324 1.25Z" fill="#1F51FF"/>
<path d="M12.6324 1.25V0.75L12.6322 0.75L12.6324 1.25ZM5.43391 1.2538V0.753793L5.43079 0.753812L5.43391 1.2538ZM5.46855 18.7505V19.2505H5.46875L5.46855 18.7505ZM12.6671 18.7477V19.2477L12.6702 19.2476L12.6671 18.7477ZM12.6324 1.25C12.6322 0.75 12.6321 0.75 12.6321 0.75C12.632 0.75 12.6319 0.75 12.6318 0.75C12.6316 0.75 12.6313 0.750001 12.6308 0.750001C12.63 0.750001 12.6287 0.750002 12.6269 0.750003C12.6235 0.750005 12.6183 0.750007 12.6115 0.750011C12.5979 0.750018 12.5778 0.750029 12.5514 0.750043C12.4988 0.750071 12.4216 0.750111 12.3233 0.750163C12.1268 0.750267 11.846 0.750416 11.509 0.750594C10.835 0.750951 9.93623 0.751426 9.03711 0.751901C8.138 0.752377 7.23854 0.752852 6.56316 0.753208C6.22546 0.753387 5.94379 0.753535 5.74619 0.753639C5.64739 0.753691 5.5696 0.753732 5.51635 0.75376C5.48972 0.753774 5.46922 0.753784 5.45529 0.753792C5.44833 0.753795 5.44301 0.753798 5.43939 0.7538C5.43758 0.753801 5.43619 0.753801 5.43524 0.753802C5.43418 0.753802 5.43384 0.753802 5.43391 0.753802V1.7538C5.43971 1.7538 7.2396 1.75285 9.03764 1.7519C9.93675 1.75143 10.8355 1.75095 11.5095 1.75059C11.8465 1.75042 12.1273 1.75027 12.3238 1.75016C12.4221 1.75011 12.4993 1.75007 12.552 1.75004C12.5783 1.75003 12.5985 1.75002 12.6121 1.75001C12.6189 1.75001 12.624 1.75 12.6275 1.75C12.6292 1.75 12.6305 1.75 12.6314 1.75C12.6318 1.75 12.6321 1.75 12.6324 1.75C12.6325 1.75 12.6325 1.75 12.6326 1.75C12.6327 1.75 12.6327 1.75 12.6324 1.25ZM5.43079 0.753812C4.02427 0.762609 2.84065 1.24004 2.0101 2.11626C1.18214 2.98973 0.75 4.21177 0.75 5.6294H1.75C1.75 4.41388 2.11785 3.4562 2.73586 2.8042C3.35129 2.15494 4.25962 1.76116 5.43704 1.75379L5.43079 0.753812ZM0.75 5.6294V14.3711H1.75V5.6294H0.75ZM0.75 14.3711C0.75 15.7956 1.18534 17.0233 2.02009 17.8983C2.85749 18.7762 4.05071 19.2505 5.46855 19.2505V18.2505C4.27999 18.2505 3.36394 17.8583 2.74367 17.2081C2.12074 16.5551 1.75 15.5931 1.75 14.3711H0.75ZM5.46855 18.7505C5.46875 19.2505 5.46878 19.2505 5.46883 19.2505C5.46889 19.2505 5.46897 19.2505 5.46908 19.2505C5.4693 19.2505 5.46962 19.2505 5.47006 19.2505C5.47093 19.2505 5.47223 19.2505 5.47396 19.2505C5.47742 19.2505 5.48257 19.2505 5.48937 19.2505C5.50296 19.2505 5.52314 19.2505 5.54946 19.2505C5.6021 19.2505 5.6793 19.2504 5.77756 19.2504C5.97409 19.2503 6.25485 19.2502 6.59181 19.2501C7.26572 19.2498 8.16439 19.2494 9.06344 19.2491C9.96249 19.2487 10.8619 19.2484 11.5374 19.2481C11.8751 19.248 12.1568 19.2479 12.3545 19.2478C12.4533 19.2477 12.5311 19.2477 12.5844 19.2477C12.6111 19.2477 12.6316 19.2477 12.6455 19.2477C12.6525 19.2477 12.6578 19.2477 12.6615 19.2477C12.6633 19.2477 12.6647 19.2477 12.6656 19.2477C12.6667 19.2477 12.6671 19.2477 12.6671 19.2477V18.2477C12.6608 18.2477 10.861 18.2484 9.06304 18.2491C8.16399 18.2494 7.26532 18.2498 6.59141 18.2501C6.25446 18.2502 5.97369 18.2503 5.77717 18.2504C5.6789 18.2504 5.6017 18.2505 5.54906 18.2505C5.52275 18.2505 5.50257 18.2505 5.48897 18.2505C5.48217 18.2505 5.47702 18.2505 5.47356 18.2505C5.47184 18.2505 5.47053 18.2505 5.46966 18.2505C5.46923 18.2505 5.4689 18.2505 5.46868 18.2505C5.46857 18.2505 5.46849 18.2505 5.46844 18.2505C5.46838 18.2505 5.46836 18.2505 5.46855 18.7505ZM12.6702 19.2476C14.0768 19.2388 15.2606 18.7611 16.0913 17.8847C16.9195 17.0111 17.3519 15.7888 17.3519 14.3711H16.3519C16.3519 15.5866 15.9839 16.5445 15.3656 17.1968C14.7499 17.8463 13.8413 18.2403 12.6639 18.2477L12.6702 19.2476ZM17.3519 14.3711V5.6294H16.3519V14.3711H17.3519ZM17.3519 5.6294C17.3519 4.20485 16.9163 2.97714 16.0813 2.1021C15.2437 1.22429 14.0503 0.75 12.6324 0.75V1.75C13.821 1.75 14.7373 2.14218 15.3578 2.79246C15.981 3.4455 16.3519 4.4075 16.3519 5.6294H17.3519Z" fill="white"/>
<path d="M13.9231 15.3476H4.17188" stroke="#FCFCFC" stroke-width="1.5" stroke-linecap="round" stroke-linejoin="round"/>
<path d="M13.9231 12.4316H4.17188" stroke="#FCFCFC" stroke-width="1.5" stroke-linecap="round" stroke-linejoin="round"/>
<path fill-rule="evenodd" clip-rule="evenodd" d="M7.75071 4.16602H4.17188Z" stroke="#FCFCFC" stroke-width="1.5" stroke-linecap="round" stroke-linejoin="round"/>
</svg>
