<svg width="20" height="18" viewBox="0 0 20 18" fill="none" xmlns="http://www.w3.org/2000/svg">
<path d="M7.34933 11.8574C3.38553 11.8574 0 12.4697 0 14.9171C0 17.3663 3.364 17.9997 7.34933 17.9997C11.3131 17.9997 14.6987 17.3874 14.6987 14.9401C14.6987 12.4908 11.3347 11.8574 7.34933 11.8574Z" fill="#1F51FF"/>
<path d="M7.3474 9.52482C10.047 9.52482 12.2104 7.40617 12.2104 4.76241C12.2104 2.11865 10.047 0 7.3474 0C4.64876 0 2.48438 2.11865 2.48438 4.76241C2.48438 7.40617 4.64876 9.52482 7.3474 9.52482Z" fill="#1F51FF"/>
<path d="M14.1708 4.84922C14.1708 6.19553 13.7579 7.45178 13.0339 8.49529C12.9585 8.60261 13.025 8.74731 13.1562 8.7703C13.3382 8.80001 13.525 8.81821 13.7158 8.82205C15.6141 8.87092 17.3176 7.67409 17.7883 5.87165C18.4859 3.19723 16.4389 0.795898 13.8313 0.795898C13.5485 0.795898 13.2775 0.824645 13.0133 0.877348C12.9771 0.885014 12.938 0.902262 12.9184 0.932926C12.893 0.972213 12.9115 1.023 12.937 1.05654C13.7207 2.13263 14.1708 3.44253 14.1708 4.84922Z" fill="#1F51FF"/>
<path d="M19.7785 12.1697C19.4311 11.4444 18.5926 10.947 17.3166 10.7027C16.7149 10.559 15.0847 10.3548 13.5691 10.3836C13.5465 10.3865 13.5338 10.4018 13.5319 10.4114C13.5289 10.4267 13.5358 10.4497 13.5651 10.466C14.2657 10.8052 16.9732 12.2809 16.6327 15.3932C16.618 15.5293 16.7286 15.6443 16.8665 15.6251C17.5329 15.5322 19.2472 15.1709 19.7785 14.0479C20.073 13.4538 20.073 12.7638 19.7785 12.1697Z" fill="#1F51FF"/>
</svg>
