<svg width="21" height="21" viewBox="0 0 21 21" fill="none" xmlns="http://www.w3.org/2000/svg">
<path fill-rule="evenodd" clip-rule="evenodd" d="M3.04476 5.30613C3.04476 4.05713 4.05676 3.04513 5.30576 3.04413H6.33476C6.93176 3.04413 7.50376 2.80713 7.92776 2.38713L8.64676 1.66713C9.52776 0.781134 10.9598 0.777134 11.8458 1.65813L11.8468 1.65913L11.8558 1.66713L12.5758 2.38713C12.9998 2.80813 13.5718 3.04413 14.1688 3.04413H15.1968C16.4458 3.04413 17.4588 4.05613 17.4588 5.30613V6.33313C17.4588 6.93013 17.6948 7.50313 18.1158 7.92713L18.8358 8.64713C19.7218 9.52813 19.7268 10.9601 18.8458 11.8461L18.8448 11.8471L18.8358 11.8561L18.1158 12.5761C17.6948 12.9991 17.4588 13.5711 17.4588 14.1681V15.1971C17.4588 16.4461 16.4468 17.4581 15.1978 17.4581H15.1968H14.1668C13.5698 17.4581 12.9968 17.6951 12.5738 18.1161L11.8538 18.8351C10.9738 19.7211 9.54276 19.7261 8.65676 18.8471C8.65576 18.8461 8.65476 18.8451 8.65376 18.8441L8.64476 18.8351L7.92576 18.1161C7.50276 17.6951 6.92976 17.4591 6.33276 17.4581H5.30576C4.05676 17.4581 3.04476 16.4461 3.04476 15.1971V14.1661C3.04476 13.5691 2.80776 12.9971 2.38676 12.5741L1.66776 11.8541C0.781764 10.9741 0.776764 9.54313 1.65676 8.65713C1.65676 8.65613 1.65776 8.65513 1.65876 8.65413L1.66776 8.64513L2.38676 7.92513C2.80776 7.50113 3.04476 6.92913 3.04476 6.33113V5.30613Z" fill="#1F51FF"/>
<path d="M3.04476 5.30613C3.04476 4.05713 4.05676 3.04513 5.30576 3.04413H6.33476C6.93176 3.04413 7.50376 2.80713 7.92776 2.38713L8.64676 1.66713C9.52776 0.781134 10.9598 0.777134 11.8458 1.65813L11.8468 1.65913L11.8558 1.66713L12.5758 2.38713C12.9998 2.80813 13.5718 3.04413 14.1688 3.04413H15.1968C16.4458 3.04413 17.4588 4.05613 17.4588 5.30613V6.33313C17.4588 6.93013 17.6948 7.50313 18.1158 7.92713L18.8358 8.64713C19.7218 9.52813 19.7268 10.9601 18.8458 11.8461L18.8448 11.8471L18.8358 11.8561L18.1158 12.5761C17.6948 12.9991 17.4588 13.5711 17.4588 14.1681V15.1971C17.4588 16.4461 16.4468 17.4581 15.1978 17.4581H15.1968H14.1668C13.5698 17.4581 12.9968 17.6951 12.5738 18.1161L11.8538 18.8351C10.9738 19.7211 9.54276 19.7261 8.65676 18.8471C8.65576 18.8461 8.65476 18.8451 8.65376 18.8441L8.64476 18.8351L7.92576 18.1161C7.50276 17.6951 6.92976 17.4591 6.33276 17.4581H5.30576C4.05676 17.4581 3.04476 16.4461 3.04476 15.1971V14.1661C3.04476 13.5691 2.80776 12.9971 2.38676 12.5741L1.66776 11.8541C0.781764 10.9741 0.776764 9.54313 1.65676 8.65713C1.65676 8.65613 1.65776 8.65513 1.65876 8.65413L1.66776 8.64513L2.38676 7.92513C2.80776 7.50113 3.04476 6.92913 3.04476 6.33113V5.30613" stroke="#1F51FF" stroke-width="1.5" stroke-linecap="round" stroke-linejoin="round"/>
</svg>
