<svg width="21" height="22" viewBox="0 0 21 22" fill="none" xmlns="http://www.w3.org/2000/svg">
<path fill-rule="evenodd" clip-rule="evenodd" d="M14.5134 20.5003H6.16555C3.09919 20.5003 0.746786 19.3927 1.41498 14.9351L2.19301 8.89387C2.60491 6.66962 4.02367 5.81836 5.26852 5.81836H15.447C16.7102 5.81836 18.0466 6.73369 18.5225 8.89387L19.3006 14.9351C19.8681 18.8893 17.5797 20.5003 14.5134 20.5003Z" fill="#1F51FF" stroke="#1F51FF" stroke-width="1.5" stroke-linecap="round" stroke-linejoin="round"/>
<path d="M14.6512 5.59873C14.6512 3.21265 12.7169 1.27836 10.3309 1.27836V1.27836C9.18186 1.27349 8.07825 1.72652 7.26406 2.53727C6.44987 3.34803 5.99218 4.44971 5.99219 5.59873H5.99219" stroke="#1F51FF" stroke-width="1.5" stroke-linecap="round" stroke-linejoin="round"/>
<path d="M13.297 10.1022H13.2512" stroke="white" stroke-width="1.5" stroke-linecap="round" stroke-linejoin="round"/>
<path d="M7.46492 10.1022H7.41916" stroke="white" stroke-width="1.5" stroke-linecap="round" stroke-linejoin="round"/>
</svg>
