<svg width="21" height="20" viewBox="0 0 21 20" fill="none" xmlns="http://www.w3.org/2000/svg">
<path opacity="0.4" d="M14.0776 0H17.4636C18.8658 0 20.0021 1.14585 20.0021 2.55996V5.97452C20.0021 7.38864 18.8658 8.53449 17.4636 8.53449H14.0776C12.6753 8.53449 11.5391 7.38864 11.5391 5.97452V2.55996C11.5391 1.14585 12.6753 0 14.0776 0" fill="#1F51FF"/>
<path fill-rule="evenodd" clip-rule="evenodd" d="M2.53852 0H5.92449C7.32676 0 8.46301 1.14585 8.46301 2.55996V5.97452C8.46301 7.38864 7.32676 8.53449 5.92449 8.53449H2.53852C1.13626 8.53449 0 7.38864 0 5.97452V2.55996C0 1.14585 1.13626 0 2.53852 0ZM2.53852 11.4648H5.92449C7.32676 11.4648 8.46301 12.6107 8.46301 14.0248V17.4394C8.46301 18.8525 7.32676 19.9993 5.92449 19.9993H2.53852C1.13626 19.9993 0 18.8525 0 17.4394V14.0248C0 12.6107 1.13626 11.4648 2.53852 11.4648ZM17.4636 11.4648H14.0776C12.6753 11.4648 11.5391 12.6107 11.5391 14.0248V17.4394C11.5391 18.8525 12.6753 19.9993 14.0776 19.9993H17.4636C18.8658 19.9993 20.0021 18.8525 20.0021 17.4394V14.0248C20.0021 12.6107 18.8658 11.4648 17.4636 11.4648Z" fill="#1F51FF"/>
</svg>
