<svg width="22" height="22" viewBox="0 0 22 22" fill="none" xmlns="http://www.w3.org/2000/svg">
<path opacity="0.4" d="M15.0776 1H18.4636C19.8658 1 21.0021 2.14585 21.0021 3.55996V6.97452C21.0021 8.38864 19.8658 9.53449 18.4636 9.53449H15.0776C13.6753 9.53449 12.5391 8.38864 12.5391 6.97452V3.55996C12.5391 2.14585 13.6753 1 15.0776 1Z" fill="#CCD1D9"/>
<path fill-rule="evenodd" clip-rule="evenodd" d="M3.53852 1.5C2.41635 1.5 1.5 2.41802 1.5 3.55996V6.97452C1.5 8.11647 2.41635 9.03449 3.53852 9.03449H6.92449C8.04666 9.03449 8.96301 8.11647 8.96301 6.97452V3.55996C8.96301 2.41802 8.04666 1.5 6.92449 1.5H3.53852ZM0.5 3.55996C0.5 1.87368 1.85616 0.5 3.53852 0.5H6.92449C8.60686 0.5 9.96301 1.87368 9.96301 3.55996V6.97452C9.96301 8.66081 8.60686 10.0345 6.92449 10.0345H3.53852C1.85616 10.0345 0.5 8.66081 0.5 6.97452V3.55996ZM3.53852 12.9648C2.41635 12.9648 1.5 13.8829 1.5 15.0248V18.4394C1.5 19.5805 2.41648 20.4993 3.53852 20.4993H6.92449C8.04654 20.4993 8.96301 19.5805 8.96301 18.4394V15.0248C8.96301 13.8829 8.04666 12.9648 6.92449 12.9648H3.53852ZM0.5 15.0248C0.5 13.3385 1.85616 11.9648 3.53852 11.9648H6.92449C8.60686 11.9648 9.96301 13.3385 9.96301 15.0248V18.4394C9.96301 20.1246 8.60698 21.4993 6.92449 21.4993H3.53852C1.85604 21.4993 0.5 20.1246 0.5 18.4394V15.0248ZM13.0391 15.0248C13.0391 13.8829 13.9554 12.9648 15.0776 12.9648H18.4636C19.5857 12.9648 20.5021 13.8829 20.5021 15.0248V18.4394C20.5021 19.5805 19.5856 20.4993 18.4636 20.4993H15.0776C13.9555 20.4993 13.0391 19.5805 13.0391 18.4394V15.0248ZM15.0776 11.9648C13.3952 11.9648 12.0391 13.3385 12.0391 15.0248V18.4394C12.0391 20.1246 13.3951 21.4993 15.0776 21.4993H18.4636C20.146 21.4993 21.5021 20.1246 21.5021 18.4394V15.0248C21.5021 13.3385 20.1459 11.9648 18.4636 11.9648H15.0776Z" fill="#CCD1D9"/>
</svg>
