<svg width="22" height="20" viewBox="0 0 22 20" fill="none" xmlns="http://www.w3.org/2000/svg">
<path d="M13.9231 15.3476H4.17188" stroke="#CCD1D9" stroke-width="1.5" stroke-linecap="round" stroke-linejoin="round"/>
<path d="M13.9231 12.4316H4.17188" stroke="#CCD1D9" stroke-width="1.5" stroke-linecap="round" stroke-linejoin="round"/>
<path fill-rule="evenodd" clip-rule="evenodd" d="M7.75071 4.16602H4.17188Z" stroke="#CCD1D9" stroke-width="1.5" stroke-linecap="round" stroke-linejoin="round"/>
<path fill-rule="evenodd" clip-rule="evenodd" d="M12.6324 0.5H12.632L12.6324 1.25L12.6319 0.5H12.6317H12.6307L12.6268 0.500003L12.6114 0.500011L12.5513 0.500043L12.3232 0.500164L11.5088 0.500594L9.03698 0.501901L6.56302 0.503209L5.74606 0.503639L5.51622 0.50376L5.45516 0.503792L5.43926 0.5038L5.43391 0.503803V0.503788L5.42922 0.503817C3.96543 0.512972 2.71299 1.01132 1.82866 1.94427C0.948218 2.87312 0.5 4.16124 0.5 5.6294V14.3711C0.5 15.8462 0.951486 17.1403 1.83919 18.0709C2.73088 19.0057 3.99339 19.5005 5.46855 19.5005H5.46885L5.46855 18.7505L5.46893 19.5005H5.46918H5.47016L5.47406 19.5005L5.48947 19.5005L5.54956 19.5005L5.77766 19.5004L6.59191 19.5001L9.06354 19.4991L11.5375 19.4981L12.3545 19.4978L12.4019 19.4978C12.4215 19.4993 12.4413 19.5001 12.4612 19.5L14.6718 19.4986L15.9827 19.4976L16.4056 19.4973L16.5646 19.4972L16.5693 19.4972C18.0332 19.488 19.2858 18.9894 20.1703 18.0563C21.0509 17.1272 21.4995 15.8389 21.4995 14.3706V9.51367C21.4995 9.09946 21.1637 8.76367 20.7495 8.76367H17.6019V5.6294C17.6019 4.15419 17.1501 2.86005 16.2622 1.92951C15.3703 0.994825 14.1076 0.5 12.6324 0.5ZM16.1019 9.44685C16.1 9.46886 16.099 9.49115 16.099 9.51367C16.099 9.53619 16.1 9.55848 16.1019 9.5805V14.3711C16.1019 15.536 15.75 16.4279 15.1841 17.0248C14.6226 17.6172 13.7835 17.9902 12.6646 17.9977L12.6624 17.9977L9.06294 17.9991L6.59131 18.0001L5.77707 18.0004L5.54896 18.0005L5.48887 18.0005L5.47346 18.0005L5.46957 18.0005H5.46858H5.46855H5.46834C4.33721 18.0005 3.49051 17.6288 2.92456 17.0355C2.35459 16.438 2 15.5425 2 14.3711V5.6294C2 4.46441 2.35177 3.57281 2.91731 2.97619C3.4786 2.38403 4.31743 2.01125 5.43654 2.0038L9.03778 2.0019L11.5096 2.00059L12.324 2.00016L12.5521 2.00004L12.6122 2.00001L12.6276 2L12.6315 2L12.6324 2L12.6325 2L12.6326 2L12.6327 2C13.7638 2.00007 14.6108 2.3717 15.177 2.96504C15.7472 3.56259 16.1019 4.45816 16.1019 5.6294V9.44685ZM17.6019 10.2637H19.9995V14.3706C19.9995 15.5355 19.6475 16.4274 19.0817 17.0243C18.5201 17.6168 17.6809 17.9898 16.5618 17.9972L16.5599 17.9972L16.4647 17.9973H16.4646C16.428 17.9973 16.3821 17.9973 16.328 17.9974C17.1721 17.0732 17.6019 15.8084 17.6019 14.3711V10.2637Z" fill="#CCD1D9"/>
</svg>
