<svg width="21" height="21" viewBox="0 0 21 21" fill="none" xmlns="http://www.w3.org/2000/svg">
<path d="M3.04476 5.30601C3.04476 4.05701 4.05676 3.04501 5.30576 3.04401H6.33476C6.93176 3.04401 7.50376 2.80701 7.92776 2.38701L8.64676 1.66701C9.52776 0.781012 10.9598 0.777012 11.8458 1.65801L11.8468 1.65901L11.8558 1.66701L12.5758 2.38701C12.9998 2.80801 13.5718 3.04401 14.1688 3.04401H15.1968C16.4458 3.04401 17.4588 4.05601 17.4588 5.30601V6.33301C17.4588 6.93001 17.6948 7.50301 18.1158 7.92701L18.8358 8.64701C19.7218 9.52801 19.7268 10.96 18.8458 11.846L18.8448 11.847L18.8358 11.856L18.1158 12.576C17.6948 12.999 17.4588 13.571 17.4588 14.168V15.197C17.4588 16.446 16.4468 17.458 15.1978 17.458H15.1968H14.1668C13.5698 17.458 12.9968 17.695 12.5738 18.116L11.8538 18.835C10.9738 19.721 9.54276 19.726 8.65676 18.847C8.65576 18.846 8.65476 18.845 8.65376 18.844L8.64476 18.835L7.92576 18.116C7.50276 17.695 6.92976 17.459 6.33276 17.458H5.30576C4.05676 17.458 3.04476 16.446 3.04476 15.197V14.166C3.04476 13.569 2.80776 12.997 2.38676 12.574L1.66776 11.854C0.781764 10.974 0.776764 9.54301 1.65676 8.65701C1.65676 8.65601 1.65776 8.65501 1.65876 8.65401L1.66776 8.64501L2.38676 7.92501C2.80776 7.50101 3.04476 6.92901 3.04476 6.33101V5.30601" stroke="#CCD1D9" stroke-width="1.5" stroke-linecap="round" stroke-linejoin="round"/>
</svg>
