<svg width="20" height="20" viewBox="0 0 20 20" fill="none" xmlns="http://www.w3.org/2000/svg">
<path fill-rule="evenodd" clip-rule="evenodd" d="M7.59102 13.2068C11.28 13.2068 14.433 13.7658 14.433 15.9988C14.433 18.2318 11.301 18.8068 7.59102 18.8068C3.90102 18.8068 0.749023 18.2528 0.749023 16.0188C0.749023 13.7848 3.88002 13.2068 7.59102 13.2068Z" stroke="#CCD1D9" stroke-width="1.5" stroke-linecap="round" stroke-linejoin="round"/>
<path fill-rule="evenodd" clip-rule="evenodd" d="M7.59108 10.0198C5.16908 10.0198 3.20508 8.05676 3.20508 5.63476C3.20508 3.21276 5.16908 1.24976 7.59108 1.24976C10.0121 1.24976 11.9761 3.21276 11.9761 5.63476C11.9851 8.04776 10.0351 10.0108 7.62208 10.0198H7.59108Z" stroke="#CCD1D9" stroke-width="1.5" stroke-linecap="round" stroke-linejoin="round"/>
<path d="M14.4824 8.88153C16.0834 8.65653 17.3164 7.28253 17.3194 5.61953C17.3194 3.98053 16.1244 2.62053 14.5574 2.36353" stroke="#CCD1D9" stroke-width="1.5" stroke-linecap="round" stroke-linejoin="round"/>
<path d="M16.5947 12.7322C18.1457 12.9632 19.2287 13.5072 19.2287 14.6272C19.2287 15.3982 18.7187 15.8982 17.8947 16.2112" stroke="#CCD1D9" stroke-width="1.5" stroke-linecap="round" stroke-linejoin="round"/>
</svg>
