<svg width="21" height="22" viewBox="0 0 21 22" fill="none" xmlns="http://www.w3.org/2000/svg">
<path fill-rule="evenodd" clip-rule="evenodd" d="M14.5134 20.4999H6.16555C3.09919 20.4999 0.746786 19.3924 1.41498 14.9347L2.19301 8.89351C2.60491 6.66925 4.02367 5.81799 5.26852 5.81799H15.447C16.7102 5.81799 18.0466 6.73332 18.5225 8.89351L19.3006 14.9347C19.8681 18.8889 17.5797 20.4999 14.5134 20.4999Z" stroke="#CCD1D9" stroke-width="1.5" stroke-linecap="round" stroke-linejoin="round"/>
<path d="M14.6502 5.59836C14.6502 3.21229 12.716 1.27799 10.3299 1.27799V1.27799C9.18088 1.27312 8.07727 1.72615 7.26308 2.53691C6.44889 3.34766 5.9912 4.44935 5.99121 5.59836H5.99121" stroke="#CCD1D9" stroke-width="1.5" stroke-linecap="round" stroke-linejoin="round"/>
<path d="M13.296 10.1018H13.2502" stroke="#CCD1D9" stroke-width="1.5" stroke-linecap="round" stroke-linejoin="round"/>
<path d="M7.46492 10.1018H7.41916" stroke="#CCD1D9" stroke-width="1.5" stroke-linecap="round" stroke-linejoin="round"/>
</svg>
