<svg width="126" height="40" viewBox="0 0 126 40" fill="none" xmlns="http://www.w3.org/2000/svg">
<path d="M56.564 25.861C60.178 25.861 62.471 23.637 62.471 19.931C62.471 16.225 60.178 14 56.517 14H52V25.861H56.564ZM55.22 23.127V16.734H56.355C58.208 16.734 59.228 17.452 59.228 19.931C59.228 22.41 58.208 23.128 56.448 23.128H55.22V23.127Z" fill="#161C23"/>
<path fill-rule="evenodd" clip-rule="evenodd" d="M116.475 25.861L117.158 23.591H121.073L121.756 25.861H125.231L121.317 14H116.915L113 25.861H116.475ZM119.069 17.266L117.888 21.181H120.343L119.162 17.266H119.069Z" fill="#161C23"/>
<path d="M64 17.22V14H75V16.5L69 22.9739V23.0429H75L75.1149 26H64V23.5289L70.209 17.313V17.22H64Z" fill="#161C23"/>
<path d="M80.568 16.595H77V14H87V16.595H83.742V25.861H80.568V16.595Z" fill="#161C23"/>
<path d="M83.7425 23.2661H87V26H77.0005V23.2661H80.5685H83.7425Z" fill="#161C23"/>
<path d="M92.568 16.595H89V14H99.31V16.595H95.742V25.861H92.568V16.595Z" fill="#161C23"/>
<path fill-rule="evenodd" clip-rule="evenodd" d="M101.001 25.861H104.221V21.946H105.333L107.418 25.861H110.916L108.507 21.436C109.769 20.828 110.522 19.675 110.522 18.031C110.522 15.506 108.756 14 106.12 14H101L101.001 25.861ZM104.221 16.571V19.444L105.356 19.443C106.485 19.443 107.163 19.049 107.163 18.03C107.163 17.011 106.485 16.571 105.356 16.571H104.221Z" fill="#161C23"/>
<g clip-path="url(#clip0_443_1699)">
<path d="M19.6508 17.4069L9.9375 30.4588V31.5433L19.6508 21.1278V17.4069Z" fill="#C048FF"/>
<path d="M19.6508 21.1281L9.9375 31.5436V32.596L19.6508 26.3369V21.1281Z" fill="#9E05E5"/>
<path d="M19.6508 26.3368L9.9375 32.5959V33.1809L19.6508 29.1013V26.3368Z" fill="#7F1499"/>
<g opacity="0.76">
<path d="M19.6495 17.3387L1 6.6969L19.6495 19.5909V17.3387Z" fill="#FFD706"/>
<path d="M19.6495 19.5909L1 6.6969L19.6495 24.5798V19.5909Z" fill="#FCAD00"/>
<path d="M19.6495 24.5798L1 6.6969L19.6495 29.0436V24.5798Z" fill="#FF6F03"/>
</g>
<path d="M20.3516 17.4071L30.0648 30.4591V31.5435L20.3516 21.128V17.4071Z" fill="#00CAFE"/>
<path d="M20.3516 21.1281L30.0648 31.5436V32.596L20.3516 26.3369V21.1281Z" fill="#0096DC"/>
<path d="M20.3516 26.3367L30.0648 32.5958V33.1807L20.3516 29.1012V26.3367Z" fill="#006BBB"/>
<g opacity="0.76">
<path d="M20.3516 17.3385L39.001 6.69666L20.3516 19.5906V17.3385Z" fill="#76CC00"/>
<path d="M20.3516 19.5906L39.001 6.69666L20.3516 24.5796V19.5906Z" fill="#4AAA01"/>
<path d="M20.3516 24.5796L39.001 6.69666L20.3516 29.0434V24.5796Z" fill="#298801"/>
</g>
</g>
<defs>
<clipPath id="clip0_443_1699">
<rect width="40" height="40" fill="white"/>
</clipPath>
</defs>
</svg>
